<?xml version="1.0" standalone="no"?><!DOCTYPE svg PUBLIC "-//W3C//DTD SVG 1.1//EN" "http://www.w3.org/Graphics/SVG/1.1/DTD/svg11.dtd"><svg t="1635493234724" class="icon" viewBox="0 0 1024 1024" version="1.1" xmlns="http://www.w3.org/2000/svg" p-id="908" xmlns:xlink="http://www.w3.org/1999/xlink" width="200" height="200"><defs><style type="text/css"></style></defs><path d="M451.84512 866.4576c0.85504 9.43104 1.31584-26.58304 1.37728-108.03712v-19.0976l2.7648 2.7648c0 97.65888 2.304 154.3168 6.912 169.97888-0.9216-3.6864-0.4608-20.73088 1.3824-51.13344l0.32256-5.2224c1.67936-27.0848 2.95936-41.92256 3.82464-44.52352 0-7.3728-0.9216-24.41728-2.7648-51.13344-0.9216-20.27008-1.3824-36.84864-1.3824-49.75104l1.3824-5.5296 1.3824-4.14208 2.7648-1.3824 2.7648 19.34848 4.1472-27.63776c0.86528 14.76608 1.32608 67.20512 1.37216 157.32224v4.37248l0.00512-31.7952 1.3824-1.3824c1.8432 0 3.6864 0.4608 5.5296 1.3824 0.9216 11.9808 1.8432 22.56896 2.7648 31.78496 0-4.608 0.6912-16.128 2.06848-34.54976l0.3328-4.46976c1.16224-15.90784 1.7408-26.3936 1.7408-31.45728l4.1472-2.7648 1.3824-31.78496c2.46784 55.77216 4.14208 104.00256 5.02272 144.70656l0.0768 4.00384 0.2816-17.08544c0.80896-39.61344 2.65216-77.84448 5.5296-114.69824l1.52576-18.30912v12.4416c1.8432 4.60288 2.7648 10.58816 2.7648 17.96096 0 8.2944-0.9216 16.12288-2.7648 23.49056l2.7648 8.2944v-16.5888c3.6864 55.28064 5.0688 97.19808 4.1472 125.75744v66.33472l2.7648-187.93984-2.7648-4.1472c0.9216-3.6864 2.304-6.912 4.1472-9.6768l2.7648 1.3824c0 6.4512-0.69632 30.63296-2.07872 72.5504-1.3824 41.92256-2.0736 74.3936-2.0736 97.42848 0 35.00544 1.3824 58.50112 4.1472 70.4768v-2.7648c-0.9216-81.07008 0.9216-128.51712 5.5296-142.336l2.16576 96.65024 0.0768-3.52256c0.5376-20.224 2.3296-47.80544 5.376-82.75968l0.67072-7.6032c4.608-58.04032 5.9904-91.20768 4.1472-99.49696l2.7648-11.0592-2.7648-2.7648 2.7648-6.912c0-0.91648 0.4608-1.83808 1.3824-2.75968 0.9216 0 1.3824 0.4608 1.3824 1.3824l1.3824-1.3824c-0.9216-1.8432-2.304-4.1472-4.1472-6.912 3.6864-35.92704 6.4512-67.2512 8.2944-93.96736l-1.3824-8.2944c0.9216-4.608 1.3824-9.67168 1.3824-15.19616 0-81.0752 11.97056-233.54368 35.92704-457.4208-5.5296-31.31904-8.7552-54.8096-9.6768-70.47168l11.0592-4.1472 2.7648 1.3824c7.36768-0.9216 21.18656-2.7648 41.45664-5.5296 17.50016-2.7648 31.77984-4.1472 42.83904-4.1472 2.7648 0 5.5296 0.4608 8.28928 1.3824 28.55936-6.4512 49.75104-10.59328 63.56992-12.43648l5.5296 4.1472 6.90688-4.1472c5.5296 0 15.20128-0.4608 29.02016-1.3824h27.63776l1.3824-6.912c6.4512 0 12.89728-4.14208 19.34848-12.43136 6.4512-8.2944 9.67168-15.6672 9.67168-22.11328 0-15.66208-5.0688-27.63776-15.2064-35.92704-4.60288 0-11.50976-0.6912-20.72576-2.0736-9.21088-1.3824-16.12288-2.0736-20.72576-2.0736-14.7456 0-34.54976 3.6864-59.42272 11.0592-31.32416 8.28928-51.59424 12.89216-60.80512 13.81376-7.3728-1.8432-18.42688-2.304-33.16736-1.3824-21.18656 1.8432-32.24576 2.7648-33.16224 2.7648-6.4512 0-10.5984 0.4608-12.4416 1.3824-80.14848-3.6864-169.51296-10.1376-268.08832-19.34848l-6.912 2.7648c-7.3728-4.608-15.20128-6.912-23.49056-6.912-23.95648 0-41.45664 5.5296-52.51584 16.5888l-11.05408-5.5296-4.1472 5.5296-20.72576 8.28928-5.5296-1.3824-1.3824 11.0592c-3.6864-1.8432-8.7552-1.8432-15.20128 0-6.4512 1.8432-9.67168 5.06368-9.67168 9.67168v4.1472c30.40256 19.34336 72.32 32.24064 125.75232 38.69184 43.29984 5.5296 87.06048 10.59328 131.28192 15.20128-10.13248 78.30528-15.20128 189.78304-15.20128 334.42304l0.01024 5.72928c0.14336 52.45952 2.21184 129.55136 6.21056 231.2704l0.4352 11.19744c3.85536 99.89632 5.7856 175.16032 5.7856 225.79712 1.8432-51.58912 3.6864-78.30528 5.5296-80.14848 3.68128 11.9808 5.98528 20.73088 6.90688 26.25536l4.1472-44.22144v98.11456c1.8432-58.04032 2.7648-101.80096 2.7648-131.2768l-0.01024 0.13824 4.15232 82.77504z m51.13344 114.70336c0.39424-22.11328 0.2816-49.04448-0.34304-80.79872l-0.08704-3.70176-0.03072 2.5088c-0.3072 26.71616-0.1536 54.04672 0.4608 81.99168z" fill="#061161" p-id="909"></path></svg>